#Comment line ignore any data following # character 
#Hierarchical Translation and Rotation (.htr) file 
[Header]	
#Header keywords are followed by a single value 
FileType HTR		#Single word string
DataType HTRS		#Translation followed by rotation and scale data
FileVersion 1		#integer
NumSegments 64		#integer
NumFrames 3		#integer
DataFrameRate 30		#integer, data frame rate in this file
EulerRotationOrder ZYX
CalibrationUnits mm
RotationUnits Degrees
GlobalAxisofGravity Y
BoneLengthAxis Y
ScaleFactor 1.00
[SegmentNames&Hierarchy]
#CHILD	PARENT
Pinger_Root GLOBAL
Pelvis Pinger_Root
L_Hip Pelvis
R_Hip Pelvis
Rear_Leg01 Pelvis
Spine1 Pelvis
L_Leg01 L_Hip
L_Leg02 L_Leg01
L_Leg03 L_Leg02
L_Foot L_Leg03
L_Toe1_01 L_Foot
L_Toe2_01 L_Foot
L_Toe3_01 L_Foot
planeAlignerLeft L_Foot
L_Toe1_02 L_Toe1_01
L_Toe1_03 L_Toe1_02
L_Toe2_02 L_Toe2_01
L_Toe2_03 L_Toe2_02
L_Toe3_02 L_Toe3_01
L_Toe3_03 L_Toe3_02
planeLockWeightLeft planeAlignerLeft
R_Leg01 R_Hip
R_Leg02 R_Leg01
R_Leg03 R_Leg02
R_Foot R_Leg03
planeAlignerRight R_Foot
R_Toe1_01 R_Foot
R_Toe2_01 R_Foot
R_Toe3_01 R_Foot
planeLockWeightRight planeAlignerRight
R_Toe1_02 R_Toe1_01
R_Toe1_03 R_Toe1_02
R_Toe2_02 R_Toe2_01
R_Toe2_03 R_Toe2_02
R_Toe3_02 R_Toe3_01
R_Toe3_03 R_Toe3_02
Rear_Leg02 Rear_Leg01
Rear_Leg03 Rear_Leg02
Rear_Leg04 Rear_Leg03
Rear_Foot Rear_Leg04
planeAlignerCenter Rear_Foot
Rear_Toe1_01 Rear_Foot
Rear_Toe2_01 Rear_Foot
Rear_Toe3_01 Rear_Foot
planeLockWeightCenter planeAlignerCenter
Rear_Toe1_02 Rear_Toe1_01
Rear_Toe1_03 Rear_Toe1_02
Rear_Toe2_02 Rear_Toe2_01
Rear_Toe2_03 Rear_Toe2_02
Rear_Toe3_02 Rear_Toe3_01
Rear_Toe3_03 Rear_Toe3_02
Back_Bone Spine1
Head Spine1
Motor_Bone Back_Bone
Ping_Mechanism Back_Bone
BN_LookIK Head
bottomMouth Head
L_Mouth01 Head
L_mouthFront Head
mouthGun Head
R_Mouth01 Head
R_mouthFront Head
TopMouth Head
weapon_bone Head
[BasePosition]
#SegmentName Tx, Ty, Tz, Rx, Ry, Rz, BoneLength
Pinger_Root 0.000000 0.000000 0.000000 -90.000000 0.000000 0.000000 10.000000 
Pelvis 0.000000 0.000000 0.000000 0.000000 0.000000 0.000000 10.000000 
L_Hip 0.000000 0.000000 0.000000 0.000000 0.000000 0.000000 10.000000 
R_Hip 0.000000 0.000000 0.000000 0.000000 0.000000 0.000000 10.000000 
Rear_Leg01 0.000000 0.000000 0.000000 0.000000 0.000000 0.000000 10.000000 
Spine1 0.000000 0.000000 0.000000 0.000000 0.000000 0.000000 10.000000 
L_Leg01 0.000000 0.000000 0.000000 0.000000 0.000000 0.000000 10.000000 
L_Leg02 0.000000 0.000000 0.000000 0.000000 0.000000 0.000000 10.000000 
L_Leg03 0.000000 0.000000 0.000000 0.000000 0.000000 0.000000 10.000000 
L_Foot 0.000000 0.000000 0.000000 0.000000 0.000000 0.000000 10.000000 
L_Toe1_01 0.000000 0.000000 0.000000 0.000000 0.000000 0.000000 10.000000 
L_Toe2_01 0.000000 0.000000 0.000000 0.000000 0.000000 0.000000 10.000000 
L_Toe3_01 0.000000 0.000000 0.000000 0.000000 0.000000 0.000000 10.000000 
planeAlignerLeft 0.000000 0.000000 0.000000 0.000000 0.000000 0.000000 10.000000 
L_Toe1_02 0.000000 0.000000 0.000000 0.000000 0.000000 0.000000 10.000000 
L_Toe1_03 0.000000 0.000000 0.000000 0.000000 0.000000 0.000000 10.000000 
L_Toe2_02 0.000000 0.000000 0.000000 0.000000 0.000000 0.000000 10.000000 
L_Toe2_03 0.000000 0.000000 0.000000 0.000000 0.000000 0.000000 10.000000 
L_Toe3_02 0.000000 0.000000 0.000000 0.000000 0.000000 0.000000 10.000000 
L_Toe3_03 0.000000 0.000000 0.000000 0.000000 0.000000 0.000000 10.000000 
planeLockWeightLeft 0.000000 0.000000 0.000000 0.000000 0.000000 0.000000 10.000000 
R_Leg01 0.000000 0.000000 0.000000 0.000000 0.000000 0.000000 10.000000 
R_Leg02 0.000000 0.000000 0.000000 0.000000 0.000000 0.000000 10.000000 
R_Leg03 0.000000 0.000000 0.000000 0.000000 0.000000 0.000000 10.000000 
R_Foot 0.000000 0.000000 0.000000 0.000000 0.000000 0.000000 10.000000 
planeAlignerRight 0.000000 0.000000 0.000000 0.000000 0.000000 0.000000 10.000000 
R_Toe1_01 0.000000 0.000000 0.000000 0.000000 0.000000 0.000000 10.000000 
R_Toe2_01 0.000000 0.000000 0.000000 0.000000 0.000000 0.000000 10.000000 
R_Toe3_01 0.000000 0.000000 0.000000 0.000000 0.000000 0.000000 10.000000 
planeLockWeightRight 0.000000 0.000000 0.000000 0.000000 0.000000 0.000000 10.000000 
R_Toe1_02 0.000000 0.000000 0.000000 0.000000 0.000000 0.000000 10.000000 
R_Toe1_03 0.000000 0.000000 0.000000 0.000000 0.000000 0.000000 10.000000 
R_Toe2_02 0.000000 0.000000 0.000000 0.000000 0.000000 0.000000 10.000000 
R_Toe2_03 0.000000 0.000000 0.000000 0.000000 0.000000 0.000000 10.000000 
R_Toe3_02 0.000000 0.000000 0.000000 0.000000 0.000000 0.000000 10.000000 
R_Toe3_03 0.000000 0.000000 0.000000 0.000000 0.000000 0.000000 10.000000 
Rear_Leg02 0.000000 0.000000 0.000000 0.000000 0.000000 0.000000 10.000000 
Rear_Leg03 0.000000 0.000000 0.000000 0.000000 0.000000 0.000000 10.000000 
Rear_Leg04 0.000000 0.000000 0.000000 0.000000 0.000000 0.000000 10.000000 
Rear_Foot 0.000000 0.000000 0.000000 0.000000 0.000000 0.000000 10.000000 
planeAlignerCenter 0.000000 0.000000 0.000000 0.000000 0.000000 0.000000 10.000000 
Rear_Toe1_01 0.000000 0.000000 0.000000 0.000000 0.000000 0.000000 10.000000 
Rear_Toe2_01 0.000000 0.000000 0.000000 0.000000 0.000000 0.000000 10.000000 
Rear_Toe3_01 0.000000 0.000000 0.000000 0.000000 0.000000 0.000000 10.000000 
planeLockWeightCenter 0.000000 0.000000 0.000000 0.000000 0.000000 0.000000 10.000000 
Rear_Toe1_02 0.000000 0.000000 0.000000 0.000000 0.000000 0.000000 10.000000 
Rear_Toe1_03 0.000000 0.000000 0.000000 0.000000 0.000000 0.000000 10.000000 
Rear_Toe2_02 0.000000 0.000000 0.000000 0.000000 0.000000 0.000000 10.000000 
Rear_Toe2_03 0.000000 0.000000 0.000000 0.000000 0.000000 0.000000 10.000000 
Rear_Toe3_02 0.000000 0.000000 0.000000 0.000000 0.000000 0.000000 10.000000 
Rear_Toe3_03 0.000000 0.000000 0.000000 0.000000 0.000000 0.000000 10.000000 
Back_Bone 0.000000 0.000000 0.000000 0.000000 0.000000 0.000000 10.000000 
Head 0.000000 0.000000 0.000000 0.000000 0.000000 0.000000 10.000000 
Motor_Bone 0.000000 0.000000 0.000000 0.000000 0.000000 0.000000 10.000000 
Ping_Mechanism 0.000000 0.000000 0.000000 0.000000 0.000000 0.000000 10.000000 
BN_LookIK 0.000000 0.000000 0.000000 0.000000 0.000000 0.000000 10.000000 
bottomMouth 0.000000 0.000000 0.000000 0.000000 0.000000 0.000000 10.000000 
L_Mouth01 0.000000 0.000000 0.000000 0.000000 0.000000 0.000000 10.000000 
L_mouthFront 0.000000 0.000000 0.000000 0.000000 0.000000 0.000000 10.000000 
mouthGun 0.000000 0.000000 0.000000 0.000000 0.000000 0.000000 10.000000 
R_Mouth01 0.000000 0.000000 0.000000 0.000000 0.000000 0.000000 10.000000 
R_mouthFront 0.000000 0.000000 0.000000 0.000000 0.000000 0.000000 10.000000 
TopMouth 0.000000 0.000000 0.000000 0.000000 0.000000 0.000000 10.000000 
weapon_bone 0.000000 0.000000 0.000000 0.000000 0.000000 0.000000 10.000000 
#Beginning of Data. Separated by tabs
#Fr	Tx	Ty	Tz	Rx	Ry	Rz	SF
[Pinger_Root]
61 0.000000 0.000000 0.000000 -0.000075 -0.000000 -0.000020 0.000000
62 0.000000 0.000000 0.000000 -0.000075 -0.000000 -0.000020 0.000000
63 0.000000 0.000000 0.000000 -0.000075 -0.000000 -0.000020 0.000000
[Pelvis]
61 -0.000024 -359.998749 2486.906250 99.613388 -77.750664 -106.751320 2512.827393
62 -0.000024 -359.998749 2486.976074 99.523918 -77.634102 -106.660080 2512.896729
63 -0.000024 -359.998749 2487.046143 99.435982 -77.517464 -106.570335 2512.966064
[L_Hip]
61 5.766392 125.831482 872.656799 -93.531845 -58.880512 1.102015 881.701050
62 5.766392 125.831482 872.656799 -93.526405 -58.824314 1.095579 881.701050
63 5.766392 125.831482 872.656799 -93.521004 -58.768131 1.089169 881.701050
[R_Hip]
61 5.765438 125.836372 -872.654907 -120.741806 46.201561 -32.171604 881.699829
62 5.765438 125.836372 -872.654907 -120.713264 46.154938 -32.131760 881.699829
63 5.765438 125.836372 -872.654907 -120.684769 46.108269 -32.091961 881.699829
[Rear_Leg01]
61 -192.298416 -925.602966 -0.001907 -172.858215 2.991771 -112.044693 945.367432
62 -192.298416 -925.602966 -0.001907 -172.858353 3.001898 -111.979134 945.367432
63 -192.298416 -925.602966 -0.001907 -172.858475 3.012026 -111.913551 945.367432
[Spine1]
61 290.604584 5.007505 0.000477 7.588719 0.014145 40.274963 290.647736
62 290.604584 5.007505 0.000477 7.588741 0.014043 40.393139 290.647736
63 290.604584 5.007505 0.000477 7.588765 0.013940 40.511337 290.647736
[L_Leg01]
61 761.932007 -0.002384 -0.069261 132.215347 -83.618042 -122.720726 761.932068
62 761.932007 -0.002384 -0.069261 132.144089 -83.463463 -122.724869 761.932068
63 761.932007 -0.002384 -0.069261 132.074539 -83.309059 -122.730812 761.932068
[L_Leg02]
61 1441.140503 -0.000954 -0.000715 8.350804 -3.323755 -136.404846 1441.140503
62 1441.140503 -0.000954 -0.000715 8.339982 -3.327457 -136.356949 1441.140503
63 1441.140503 -0.000954 -0.000715 8.329155 -3.331149 -136.309036 1441.140503
[L_Leg03]
61 1686.963989 -0.000715 -0.000954 0.043629 -0.010444 98.976303 1686.963989
62 1686.963989 -0.000715 -0.000954 0.043635 -0.010417 98.904640 1686.963989
63 1686.963989 -0.000715 -0.000954 0.043642 -0.010390 98.832985 1686.963989
[L_Foot]
61 3041.570068 -30.715107 11.297464 -34.558609 29.937511 25.652063 3041.746094
62 3041.570068 -30.715107 11.297464 -34.556202 29.986645 25.660561 3041.746094
63 3041.570068 -30.715107 11.297464 -34.553772 30.035774 25.669062 3041.746094
[L_Toe1_01]
61 -188.216690 -224.732346 -21.137953 73.312202 -5.230959 -172.466782 293.899567
62 -188.216690 -224.732346 -21.137953 73.316055 -5.245411 -172.502304 293.899567
63 -188.216690 -224.732346 -21.137953 73.319901 -5.259861 -172.537827 293.899567
[L_Toe2_01]
61 200.746536 -219.926590 148.838394 -73.056023 -16.147154 -54.167831 332.896027
62 200.746536 -219.926590 148.838394 -73.056084 -16.144979 -54.164272 332.896027
63 200.746536 -219.926590 148.838394 -73.056114 -16.142792 -54.160694 332.896027
[L_Toe3_01]
61 188.832520 -219.859131 -191.078659 -125.318779 45.978474 -59.702950 347.140900
62 188.832520 -219.859131 -191.078659 -125.277374 45.930149 -59.629463 347.140900
63 188.832520 -219.859131 -191.078659 -125.236137 45.881786 -59.556129 347.140900
[planeAlignerLeft]
61 -36.148033 -485.945557 -95.222023 -49.351971 -81.973366 -51.648739 496.504791
62 -35.942665 -485.889374 -95.189514 -49.349442 -81.972527 -51.651428 496.428650
63 -34.682430 -485.759033 -95.115097 -49.346931 -81.971748 -51.654076 496.197113
[L_Toe1_02]
61 413.761139 0.000477 0.000000 0.001395 -24.607607 0.001395 413.761139
62 413.761139 0.000477 0.000000 0.001394 -24.638601 0.001394 413.761139
63 413.761139 0.000477 0.000000 0.001394 -24.669609 0.001394 413.761139
[L_Toe1_03]
61 464.317322 0.000358 -0.000089 0.002684 38.148754 0.002684 464.317322
62 464.317322 0.000358 -0.000089 0.002694 38.345005 0.002694 464.317322
63 464.317322 0.000358 -0.000089 0.002713 38.743671 0.002713 464.317322
[L_Toe2_02]
61 342.235809 -0.000477 0.000238 0.001181 -76.925133 0.001181 342.235809
62 342.235809 -0.000477 0.000238 0.001181 -76.922714 0.001181 342.235809
63 342.235809 -0.000477 0.000238 0.001181 -76.920280 0.001181 342.235809
[L_Toe2_03]
61 420.210846 -0.000715 0.000000 -179.994904 80.377281 -179.991394 420.210846
62 420.210846 -0.000715 0.000000 -179.994873 80.427757 -179.991364 420.210846
63 420.210846 -0.000715 0.000000 -179.994827 80.478218 -179.991318 420.210846
[L_Toe3_02]
61 329.270111 0.000954 0.000000 0.001176 -82.828651 0.001176 329.270111
62 329.270111 0.000954 0.000000 0.001176 -82.825912 0.001176 329.270111
63 329.270111 0.000954 0.000000 0.001176 -82.823181 0.001176 329.270111
[L_Toe3_03]
61 439.137451 -0.001907 0.000954 179.990540 67.050011 179.997665 439.137451
62 439.137451 -0.001907 0.000954 179.990540 67.054535 179.997665 439.137451
63 439.137451 -0.001907 0.000954 179.990524 67.059044 179.997665 439.137451
[planeLockWeightLeft]
61 999.998840 0.098095 0.075994 -0.011826 -0.004376 0.005620 999.998901
62 999.998840 0.098097 0.075993 -0.011826 -0.004376 0.005620 999.998901
63 999.998840 0.098100 0.075992 -0.011826 -0.004376 0.005620 999.998901
[R_Leg01]
61 761.455627 -0.001907 -0.000358 52.709141 -54.579002 120.877724 761.455688
62 761.455627 -0.001907 -0.000358 52.731869 -54.416550 120.852058 761.455688
63 761.455627 -0.001907 -0.000358 52.754387 -54.254105 120.826622 761.455688
[R_Leg02]
61 1441.140625 0.000000 -0.000238 -20.346487 1.096861 -111.783310 1441.140625
62 1441.140625 0.000000 -0.000238 -20.381750 1.115291 -111.574074 1441.140625
63 1441.140625 0.000000 -0.000238 -20.404827 1.111470 -111.515968 1441.140625
[R_Leg03]
61 1686.963989 0.000954 0.001431 0.040809 -0.018633 121.134102 1686.963989
62 1686.963989 0.000954 0.001431 0.040815 -0.018619 121.093407 1686.963989
63 1686.963989 0.000954 0.001431 0.040822 -0.018604 121.052704 1686.963989
[R_Foot]
61 3041.560059 -30.531288 -11.204481 28.501194 -28.140959 19.977669 3041.734131
62 3041.560059 -30.531288 -11.204481 28.504436 -28.185356 19.949047 3041.734131
63 3041.560059 -30.531288 -11.204481 28.507700 -28.229753 19.920410 3041.734131
[planeAlignerRight]
61 -220.934845 -562.914490 -76.348038 -172.216263 -81.431870 69.619392 609.519470
62 -220.726288 -562.825134 -76.351166 -172.216248 -81.431885 69.619385 609.361755
63 -219.407425 -562.597046 -76.386963 -172.216248 -81.431885 69.619385 608.678894
[R_Toe1_01]
61 -188.383347 -224.864899 21.052242 102.447945 -2.539027 -172.065765 294.101532
62 -188.383347 -224.864899 21.052242 102.449478 -2.533243 -172.099121 294.101532
63 -188.383347 -224.864899 21.052242 102.450989 -2.527457 -172.132462 294.101532
[R_Toe2_01]
61 200.637817 -220.002121 -148.787384 -125.807732 12.683270 -63.775936 332.857574
62 200.637817 -220.002121 -148.787384 -125.807213 12.681300 -63.771210 332.857574
63 200.637817 -220.002121 -148.787384 -125.792870 12.639400 -63.716324 332.857574
[R_Toe3_01]
61 188.606735 -220.092957 191.126343 -66.960640 -38.551739 -60.739727 347.192566
62 188.606735 -220.092957 191.126343 -66.985977 -38.508003 -60.673943 347.192566
63 188.606735 -220.092957 191.126343 -67.011192 -38.464222 -60.608204 347.192566
[planeLockWeightRight]
61 999.999329 0.000000 0.076005 -0.011823 -0.004379 -0.000027 999.999329
62 999.999329 0.000000 0.076005 -0.011823 -0.004379 -0.000027 999.999329
63 999.999329 0.000000 0.076004 -0.011823 -0.004379 -0.000027 999.999329
[R_Toe1_02]
61 413.762085 0.000477 -0.000119 0.001385 -25.797920 0.001385 413.762085
62 413.762085 0.000477 -0.000119 0.001385 -25.801926 0.001385 413.762085
63 413.762085 0.000477 -0.000119 0.001385 -25.805931 0.001385 413.762085
[R_Toe1_03]
61 464.317810 0.000000 0.001088 0.003194 46.883110 0.003194 464.317810
62 464.317810 0.000000 0.001088 0.003215 47.174694 0.003215 464.317810
63 464.317810 0.000000 0.001088 0.003236 47.466259 0.003236 464.317810
[R_Toe2_02]
61 342.234741 -0.000954 0.000238 -0.002342 -75.384102 -0.002342 342.234741
62 342.234741 -0.000954 0.000238 -0.002342 -75.382248 -0.002342 342.234741
63 342.234741 -0.000954 0.000238 -0.002342 -75.380424 -0.002342 342.234741
[R_Toe2_03]
61 420.210846 0.000715 -0.000268 -179.983704 85.469795 -179.987213 420.210846
62 420.210846 0.000715 -0.000268 -179.983429 85.558990 -179.986923 420.210846
63 420.210846 0.000715 -0.000268 -179.983109 85.647873 -179.986618 420.210846
[R_Toe3_02]
61 329.270355 -0.000477 -0.000954 0.001176 -82.639687 0.001176 329.270355
62 329.270355 -0.000477 -0.000954 0.001176 -82.638962 0.001176 329.270355
63 329.270355 -0.000477 -0.000954 0.001176 -82.638321 0.001176 329.270355
[R_Toe3_03]
61 439.137939 0.000238 0.001431 -179.998779 67.932091 -179.995209 439.137939
62 439.137939 0.000238 0.001431 -179.998779 67.938683 -179.995209 439.137939
63 439.137939 0.000238 0.001431 -179.998779 67.945343 -179.995209 439.137939
[Rear_Leg02]
61 1162.777710 -0.029802 0.005960 6.079063 0.562506 -149.208878 1162.777710
62 1162.777710 -0.029802 0.005960 6.074067 0.557080 -149.276001 1162.777710
63 1162.777710 -0.029802 0.005960 6.069077 0.551649 -149.343124 1162.777710
[Rear_Leg03]
61 607.192505 -0.013351 -0.073195 0.010236 -0.005601 73.725372 607.192505
62 607.192505 -0.013351 -0.073195 0.010236 -0.005601 73.727425 607.192505
63 607.192505 -0.013351 -0.073195 0.010236 -0.005601 73.729500 607.192505
[Rear_Leg04]
61 995.874512 -0.020504 -0.011921 -0.045173 -0.018104 79.737495 995.874573
62 995.874512 -0.020504 -0.011921 -0.045163 -0.018129 79.675179 995.874573
63 995.874512 -0.020504 -0.011921 -0.045153 -0.018153 79.612846 995.874573
[Rear_Foot]
61 3096.176270 -0.067472 -0.041425 -15.162707 81.565529 -155.382095 3096.176270
62 3096.176270 -0.067472 -0.041425 -15.194348 81.579391 -155.420822 3096.176270
63 3096.176270 -0.067472 -0.041425 -15.226123 81.593346 -155.459686 3096.176270
[planeAlignerCenter]
61 -9.094398 -185.710617 -666.162170 12.240772 -0.001473 179.998184 691.623596
62 -9.090483 -185.625870 -666.097717 12.240773 -0.001473 179.998184 691.538696
63 -9.086568 -185.541122 -666.033142 12.240773 -0.001473 179.998184 691.453674
[Rear_Toe1_01]
61 0.653352 83.966492 -371.173737 0.714861 30.829508 91.080940 380.553192
62 0.653352 83.966492 -371.173737 0.715416 30.829491 91.081490 380.553192
63 0.653352 83.966492 -371.173737 0.715971 30.829487 91.082039 380.553192
[Rear_Toe2_01]
61 178.200760 -294.826019 -362.060547 -8.048095 29.241140 -68.170265 499.765686
62 178.200760 -294.826019 -362.060547 -8.047868 29.242674 -68.164467 499.765686
63 178.200760 -294.826019 -362.060547 -8.047639 29.244204 -68.158653 499.765686
[Rear_Toe3_01]
61 -153.359680 -308.780914 -362.060852 3.662239 27.941128 -111.862579 499.952881
62 -153.359680 -308.780914 -362.060852 3.662467 27.937099 -111.859673 499.952881
63 -153.359680 -308.780914 -362.060852 3.662693 27.933073 -111.856789 499.952881
[planeLockWeightCenter]
61 1000.000122 0.000172 0.076252 -0.011814 -0.004373 -0.000015 1000.000122
62 1000.000122 0.000169 0.076252 -0.011814 -0.004373 -0.000015 1000.000122
63 1000.000122 0.000167 0.076251 -0.011814 -0.004373 -0.000015 1000.000122
[Rear_Toe1_02]
61 379.707825 0.194073 0.000477 -0.002651 -32.410572 -0.002651 379.707855
62 379.707825 0.194073 0.000477 -0.002651 -32.410381 -0.002651 379.707855
63 379.707825 0.194073 0.000477 -0.002651 -32.410187 -0.002651 379.707855
[Rear_Toe1_03]
61 500.129700 0.165701 0.000119 -179.981964 85.956726 -179.985458 500.129761
62 500.129700 0.165701 0.000119 -179.981918 85.967941 -179.985413 500.129761
63 500.129700 0.165701 0.000119 -179.981873 85.979027 -179.985367 500.129761
[Rear_Toe2_02]
61 340.494507 0.000238 -0.000954 0.001200 -65.842667 0.001200 340.494507
62 340.494507 0.000238 -0.000954 0.001200 -65.855713 0.001200 340.494507
63 340.494507 0.000238 -0.000954 0.001200 -65.868759 0.001200 340.494507
[Rear_Toe2_03]
61 433.103577 0.000000 0.000238 0.005197 63.895702 0.005197 433.103546
62 433.103577 0.000000 0.000238 0.005201 63.920197 0.005201 433.103546
63 433.103577 0.000000 0.000238 0.005206 63.944683 0.005206 433.103546
[Rear_Toe3_02]
61 340.494141 -0.000358 -0.000477 -0.002399 -61.094074 -0.002399 340.494171
62 340.494141 -0.000358 -0.000477 -0.002399 -61.106453 -0.002399 340.494171
63 340.494141 -0.000358 -0.000477 -0.002399 -61.118816 -0.002399 340.494171
[Rear_Toe3_03]
61 433.103577 0.001431 -0.000238 -0.000234 57.519039 -0.003876 433.103546
62 433.103577 0.001431 -0.000238 -0.000235 57.538006 -0.003877 433.103546
63 433.103577 0.001431 -0.000238 -0.000237 57.556988 -0.003878 433.103546
[Back_Bone]
61 1312.175781 -701.934692 0.000954 1.360428 -0.001018 -89.421967 1488.125488
62 1312.175781 -701.934692 0.000954 1.369209 0.000080 -89.078568 1488.125488
63 1312.175781 -701.934692 0.000954 1.377997 0.001125 -88.735176 1488.125488
[Head]
61 1406.159424 809.709290 0.001431 -1.953367 2.601462 4.305456 1622.625488
62 1406.159424 809.709290 0.001431 -1.952962 2.601801 4.314600 1622.625488
63 1406.159424 809.709290 0.001431 -1.952557 2.602140 4.323745 1622.625488
[Motor_Bone]
61 1158.364380 -417.834747 0.000477 -0.119074 -0.100834 -112.398132 1231.419434
62 1158.364380 -417.834747 0.000477 -0.114492 -0.128502 -115.337074 1231.419434
63 1158.364380 -417.834747 0.000477 -0.109951 -0.143289 -116.515541 1231.419434
[Ping_Mechanism]
61 1168.273438 -380.879791 -17.172335 0.000103 -0.000053 82.120995 1228.913086
62 1168.104126 -380.468170 -17.260317 0.000103 -0.000053 82.120995 1228.625854
63 1167.519897 -381.536224 -17.320326 0.000103 -0.000053 82.120995 1228.402466
[BN_LookIK]
61 193.241119 1380.371704 -0.002861 0.000000 89.965736 -31.038179 1393.832153
62 193.241119 1380.371704 -0.002861 0.000000 89.965736 -31.038179 1393.832153
63 193.241119 1380.371704 -0.002861 0.000000 89.965736 -31.038179 1393.832153
[bottomMouth]
61 -435.092926 615.759399 -0.000954 -0.000022 0.000016 73.527184 753.966492
62 -435.092926 615.759399 -0.000954 -0.000022 0.000016 73.527184 753.966492
63 -435.092926 615.759399 -0.000954 -0.000022 0.000016 73.527184 753.966492
[L_Mouth01]
61 554.440979 7.658243 838.222046 150.204178 23.759130 109.605339 1005.027161
62 554.440979 7.658243 838.222046 150.204178 23.759130 109.605339 1005.027161
63 554.440979 7.658243 838.222046 150.204178 23.759130 109.605339 1005.027161
[L_mouthFront]
61 551.629089 934.514771 339.150421 0.000081 2.804060 79.119301 1136.941284
62 551.629089 934.514771 339.150421 0.000081 2.804060 79.119301 1136.941284
63 551.629089 934.514771 339.150421 0.000081 2.804060 79.119301 1136.941284
[mouthGun]
61 55.332661 1627.420898 0.000000 0.000023 0.000009 -11.038128 1628.361328
62 55.332661 1627.420898 0.000000 0.000023 0.000009 -11.038128 1628.361328
63 55.332661 1627.420898 0.000000 0.000023 0.000009 -11.038128 1628.361328
[R_Mouth01]
61 554.442383 7.659197 -838.223938 29.795891 -23.759109 109.605331 1005.029541
62 554.442383 7.659197 -838.223938 29.795891 -23.759109 109.605331 1005.029541
63 554.442383 7.659197 -838.223938 29.795891 -23.759109 109.605331 1005.029541
[R_mouthFront]
61 551.629089 934.514282 -339.151367 0.000029 -2.803930 79.119133 1136.941162
62 551.629089 934.514282 -339.151367 0.000029 -2.803930 79.119133 1136.941162
63 551.629089 934.514282 -339.151367 0.000029 -2.803930 79.119133 1136.941162
[TopMouth]
61 461.269867 -56.106091 -0.008583 -0.000059 -0.000268 92.025169 464.669525
62 461.269867 -56.106091 -0.008583 -0.000059 -0.000268 92.025169 464.669525
63 461.269867 -56.106091 -0.008583 -0.000059 -0.000268 92.025169 464.669525
[weapon_bone]
61 -987.239868 1448.372803 0.001431 0.000000 89.965736 -31.038221 1752.833740
62 -987.239868 1448.372803 0.001431 0.000000 89.965736 -31.038221 1752.833740
63 -987.239868 1448.372803 0.001431 0.000000 89.965736 -31.038221 1752.833740
